# xmcd CD database file
#
# Track frame offsets:
#	150
#	28897
#	53827
#	84085
#	117475
#	141717
#	176045
#	208607
#	234562
#	261430
#
# Disc length: 3942 seconds
#
# Revision: 1
# Processed by: cddbd v1.5.1PL2 Copyright (c) Steve Scherf et al.
# Submitted via: CDex 1.51
#
DISCID=950f640a
DTITLE=Carlo de Wijs - The O'Beat
DYEAR=1900
DGENRE=Jazz
TTITLE0=Something's Going On
TTITLE1=Call It Rhythm and Soul
TTITLE2=Tables Are Turned
TTITLE3=D'Organbeat
TTITLE4=Parade
TTITLE5=Beatstreet
TTITLE6=I Can Show U 7th Heaven
TTITLE7=The Husband
TTITLE8=Neptune
TTITLE9=Gospel
EXTD=
EXTT0=
EXTT1=
EXTT2=
EXTT3=
EXTT4=
EXTT5=
EXTT6=
EXTT7=
EXTT8=
EXTT9=
PLAYORDER=
